<svg xmlns="http://www.w3.org/2000/svg" xmlns:xlink="http://www.w3.org/1999/xlink" width="1024" zoomAndPan="magnify" viewBox="0 0 768 767.999994" height="1024" preserveAspectRatio="xMidYMid meet" version="1.0"><defs><g/><clipPath id="74f1a4fff5"><path d="M 10.285156 10.285156 L 757.714844 10.285156 L 757.714844 757.714844 L 10.285156 757.714844 Z M 10.285156 10.285156 " clip-rule="nonzero"/></clipPath><clipPath id="f96137277d"><path d="M 384 10.285156 C 177.601562 10.285156 10.285156 177.601562 10.285156 384 C 10.285156 590.398438 177.601562 757.714844 384 757.714844 C 590.398438 757.714844 757.714844 590.398438 757.714844 384 C 757.714844 177.601562 590.398438 10.285156 384 10.285156 Z M 384 10.285156 " clip-rule="nonzero"/></clipPath></defs><g clip-path="url(#74f1a4fff5)"><g clip-path="url(#f96137277d)"><path fill="#ffffff" d="M 10.285156 10.285156 L 757.714844 10.285156 L 757.714844 757.714844 L 10.285156 757.714844 Z M 10.285156 10.285156 " fill-opacity="1" fill-rule="nonzero"/></g></g><g fill="#080808" fill-opacity="1"><g transform="translate(104.931552, 572.987838)"><g><path d="M -8.191406 -18.273438 L 339.636719 -439.828125 C 347.199219 -449.070312 355.8125 -453.691406 365.472656 -453.691406 L 465.035156 -453.691406 C 474.695312 -453.691406 479.527344 -449.070312 479.527344 -439.828125 L 487.089844 -18.273438 C 487.089844 -6.089844 480.578125 0 467.554688 0 L 367.992188 0 C 357.910156 0 353.082031 -4.621094 353.5 -13.863281 L 353.5 -70.574219 C 353.5 -74.355469 351.402344 -76.246094 347.199219 -76.246094 L 241.339844 -76.246094 C 227.894531 -76.246094 226.214844 -82.335938 236.296875 -94.519531 L 291.75 -164.464844 C 296.371094 -170.34375 300.253906 -174.019531 303.40625 -175.492188 C 306.558594 -176.960938 311.492188 -177.695312 318.214844 -177.695312 L 347.828125 -177.695312 C 352.03125 -177.695312 354.132812 -179.585938 354.132812 -183.367188 L 353.5 -279.777344 L 141.777344 -13.863281 C 137.15625 -7.980469 133.273438 -4.199219 130.121094 -2.519531 C 126.96875 -0.839844 122.246094 0 115.941406 0 L -3.78125 0 C -16.804688 0 -18.273438 -6.089844 -8.191406 -18.273438 Z M -8.191406 -18.273438 "/></g></g></g></svg>